<svg width="15" height="15" viewBox="0 0 15 15" fill="none" xmlns="http://www.w3.org/2000/svg">
<path d="M12.3913 3.26082C12.3913 2.90049 12.0994 2.60864 11.7391 2.60864C11.3788 2.60864 11.0869 2.90049 11.0869 3.26082C11.0869 3.62114 11.3788 3.91299 11.7391 3.91299C12.0994 3.91299 12.3913 3.62114 12.3913 3.26082" fill="white"/>
<path fill-rule="evenodd" clip-rule="evenodd" d="M3.26086 7.50012C3.26086 5.15881 5.15869 3.26099 7.49999 3.26099C9.8413 3.26099 11.7391 5.15881 11.7391 7.50012C11.7391 9.84142 9.8413 11.7392 7.49999 11.7392C5.15869 11.7392 3.26086 9.84142 3.26086 7.50012ZM4.56521 7.50012C4.56521 9.07805 5.92206 10.4349 7.49999 10.4349C9.07793 10.4349 10.4348 9.07805 10.4348 7.50012C10.4348 5.92218 9.07793 4.56533 7.49999 4.56533C5.92206 4.56533 4.56521 5.92218 4.56521 7.50012Z" fill="white"/>
<path fill-rule="evenodd" clip-rule="evenodd" d="M3.26087 0H11.7391C13.5401 0 15 1.45989 15 3.26087V11.7391C15 13.5401 13.5401 15 11.7391 15H3.26087C1.45989 15 0 13.5401 0 11.7391V3.26087C0 1.45989 1.45989 0 3.26087 0ZM11.8735 13.6957C12.8798 13.6957 13.6957 12.8798 13.6957 11.8735V3.12652C13.6957 2.12022 12.8798 1.30435 11.8735 1.30435H3.12652C2.12022 1.30435 1.30435 2.12022 1.30435 3.12652V11.8735C1.30435 12.8798 2.12022 13.6957 3.12652 13.6957H11.8735Z" fill="white"/>
</svg>
