<svg width="12" height="15" viewBox="0 0 12 15" fill="none" xmlns="http://www.w3.org/2000/svg">
<path d="M6.36611 0C2.13616 0 0 2.93384 0 5.38069C0 6.86543 0.580937 8.17794 1.82148 8.67088C2.02723 8.75402 2.20877 8.67682 2.26929 8.45707C2.31165 8.3086 2.49924 7.92257 2.5416 7.76816C2.60212 7.55435 2.57791 7.47715 2.41452 7.2871C2.05749 6.87731 1.83358 6.44971 1.83358 5.7014C1.83358 3.20704 3.41906 1.43129 6.118 1.43129C8.50831 1.43129 9.82147 2.88633 9.82147 4.77492C9.82147 7.25741 8.6838 9.27665 6.99545 9.27665C6.06353 9.27665 5.36762 8.61149 5.59152 7.69689C5.85779 6.60412 6.37821 5.42821 6.37821 4.63833C6.37821 3.93159 5.99092 3.42678 5.18003 3.42678C4.22995 3.42678 3.46142 4.2998 3.46142 5.57668C3.46142 6.39032 3.73373 6.79417 3.73373 6.79417C3.73373 6.79417 2.77156 10.9336 2.59606 11.6344C2.25718 13.0301 2.54765 14.7346 2.57186 14.9068C2.58396 15.0077 2.72314 15.0315 2.78366 14.9543C2.86838 14.8474 4.00605 13.4874 4.39334 12.1333C4.50226 11.7532 5.02269 9.76958 5.02269 9.76958C5.33131 10.3397 6.23903 10.7079 7.19515 10.7079C10.0575 10.7079 12 8.31454 12 4.94121C12.006 2.38152 9.76701 0 6.36611 0V0Z" fill="white"/>
</svg>
