<svg width="15" height="12" viewBox="0 0 15 12" fill="none" xmlns="http://www.w3.org/2000/svg">
<path d="M10.4632 0.000209573C8.72325 0.0317742 7.36182 1.51088 7.36182 3.23441V3.65232C4.26706 3.09798 2.71969 2.2666 1.04062 0.52194C0.0363359 2.44582 1.13385 4.07623 2.35753 4.95664C1.53867 4.95664 0.866784 4.8403 0.3387 4.38431C0.298929 4.34987 0.236244 4.38535 0.250467 4.4357C0.709807 6.04445 2.22295 7.21495 3.41107 7.56529C2.33857 7.56529 1.61137 7.72364 0.860199 7.24521C0.816741 7.21756 0.760904 7.2593 0.778287 7.30756C1.34693 8.88971 2.50766 9.39135 4.20122 9.39135C3.35918 10.0049 2.23875 10.6495 0.094807 10.6938C0.00789051 10.6957 -0.0342508 10.8032 0.0337021 10.8572C0.843079 11.5036 2.78343 12 5.51814 12C10.0312 12 13.683 8.03303 13.683 3.13059V2.86972C14.3852 2.60964 14.7971 1.98722 14.9978 1.36219C15.0092 1.32749 14.9741 1.29514 14.9394 1.30688L13.457 1.81348C13.4233 1.82496 13.4001 1.78244 13.4275 1.76027C14.0481 1.25419 14.5403 0.631503 14.7347 0.0375133C14.7423 0.0145571 14.7173 -0.00631205 14.6949 0.00307909C13.9835 0.298639 13.3059 0.57646 12.7704 0.741066C12.6811 0.768718 12.5866 0.75724 12.5049 0.711849C12.1536 0.516983 11.1361 -0.0120511 10.4632 0.000209573" fill="white"/>
</svg>
