<svg width="80" height="19" viewBox="0 0 80 19" fill="none" xmlns="http://www.w3.org/2000/svg">
<mask id="mask0_565_9043" style="mask-type:alpha" maskUnits="userSpaceOnUse" x="0" y="0" width="80" height="19">
<path d="M0.140625 18.0588H79.8229V0.163574H0.140625V18.0588Z" fill="white"/>
</mask>
<g mask="url(#mask0_565_9043)">
<path fill-rule="evenodd" clip-rule="evenodd" d="M14.0488 17.81H18.6929V0.16333H14.0488V17.81Z" fill="white"/>
<path fill-rule="evenodd" clip-rule="evenodd" d="M26.6549 8.46471C25.2806 8.46471 24.712 9.58328 24.712 11.0246C24.712 12.4663 25.2806 13.6343 26.6549 13.6343C28.0292 13.6343 28.5977 12.4663 28.5977 11.0246C28.5977 9.58328 28.0292 8.46471 26.6549 8.46471ZM26.6549 18.0586C22.2478 18.0586 19.9258 15.6477 19.9258 11.0246C19.9258 6.40189 22.2478 4.04077 26.6549 4.04077C31.062 4.04077 33.384 6.40189 33.384 11.0246C33.384 15.6477 31.062 18.0586 26.6549 18.0586Z" fill="white"/>
<path fill-rule="evenodd" clip-rule="evenodd" d="M44.5195 12.9386V17.3628C43.5241 17.8101 42.2448 18.0586 41.2497 18.0586C36.9372 18.0586 34.4258 15.5482 34.4258 11.0249C34.4258 6.50124 36.9372 4.04077 41.2497 4.04077C42.2448 4.04077 43.5241 4.28908 44.5195 4.73666V9.16087C43.6901 8.76314 42.6475 8.46485 41.8183 8.46485C40.1598 8.46485 39.2121 9.4094 39.2121 11.0249C39.2121 12.6405 40.1598 13.6345 41.8183 13.6345C42.6475 13.6345 43.6901 13.3364 44.5195 12.9386Z" fill="white"/>
<path fill-rule="evenodd" clip-rule="evenodd" d="M54.8018 10.2044L59.3748 17.81H53.8542L50.4896 11.7704V17.81H45.8457V0.16333H50.4896V8.71332L53.7119 4.28902H59.3748L54.8018 10.2044Z" fill="white"/>
<path fill-rule="evenodd" clip-rule="evenodd" d="M66.2708 9.38444C66.2708 8.34038 65.7737 7.56992 64.6836 7.56992C63.5934 7.56992 63.0964 8.34038 63.0964 9.38444H66.2708ZM70.7255 12.1185H63.0964C63.2381 13.5102 64.5177 14.0817 66.2473 14.0817C67.5981 14.0817 69.3747 13.7092 70.7255 13.1124V17.0145C69.1141 17.7602 67.2421 18.0586 65.4413 18.0586C60.6082 18.0586 58.3574 15.6477 58.3574 11.0246C58.3574 6.45139 60.7503 4.04077 64.8253 4.04077C68.6641 4.04077 70.7255 6.69994 70.7255 10.7266V12.1185Z" fill="white"/>
<path fill-rule="evenodd" clip-rule="evenodd" d="M76.5054 8.61397V10.8759C76.5054 12.864 77.7373 13.5352 79.5852 13.5352H79.8223V17.86C79.3958 17.9346 78.9222 17.9843 78.4957 17.9843C74.1357 17.9843 71.8613 15.5483 71.8613 10.9753V0.809814H76.5054V4.28924H79.8223V8.61397H76.5054Z" fill="white"/>
<mask id="mask1_565_9043" style="mask-type:alpha" maskUnits="userSpaceOnUse" x="0" y="0" width="13" height="18">
<path d="M0.140625 0.163574H12.8167V17.8101H0.140625V0.163574Z" fill="white"/>
</mask>
<g mask="url(#mask1_565_9043)">
<path fill-rule="evenodd" clip-rule="evenodd" d="M5.59027 8.36547C5.32969 8.36547 4.99805 8.41498 4.78466 8.46467V13.585H5.63768C7.20151 13.585 8.03085 12.5658 8.03085 10.9254C8.03085 9.28495 7.15409 8.36547 5.59027 8.36547ZM5.85096 17.81H0.140625V0.16333H4.78466V4.2146C5.23476 4.11537 5.80344 4.04072 6.30105 4.04072C10.3764 4.04072 12.8168 6.40183 12.8168 10.9254C12.8168 15.4986 10.2105 17.81 5.85096 17.81Z" fill="white"/>
</g>
</g>
</svg>
