<svg width="63" height="44" viewBox="0 0 63 44" fill="none" xmlns="http://www.w3.org/2000/svg">
<path d="M9.0343 39.9678H6.80267L6.156 37.9454H2.92268L2.28235 39.9678H0.0633986L3.37281 30.8764H5.80097L9.0343 39.9678ZM5.68685 36.3731L4.71052 33.3173C4.63866 33.089 4.58795 32.8164 4.55836 32.4994H4.50764C4.48651 32.7657 4.43368 33.0299 4.34914 33.2919L3.36013 36.3731H5.68685ZM20.5285 39.9678H18.5061V34.5282C18.5061 33.9407 18.5314 33.2919 18.5821 32.5818H18.5314C18.4257 33.1397 18.3306 33.5413 18.2461 33.7864L16.1159 39.9678H14.4422L12.274 33.8498C12.2148 33.685 12.1197 33.2623 11.9887 32.5818H11.9316C11.9866 33.4779 12.014 34.264 12.014 34.9403V39.9678H10.1691V30.8764H13.1679L15.0255 36.2653C15.1734 36.6964 15.2812 37.1296 15.3488 37.565H15.3868C15.501 37.062 15.6214 36.6246 15.7482 36.2526L17.6058 30.8764H20.5285V39.9678Z" fill="#E70009"/>
<path d="M26.1836 39.9678V30.8764H29.493C30.5074 30.8764 31.2872 31.0624 31.8324 31.4343C32.3777 31.8063 32.6503 32.3304 32.6503 33.0066C32.6503 33.4969 32.4833 33.9259 32.1494 34.2936C31.8198 34.6613 31.3971 34.917 30.8815 35.0607V35.0861C31.5281 35.1664 32.0438 35.4052 32.4284 35.8025C32.8172 36.1998 33.0117 36.6837 33.0117 37.2543C33.0117 38.0869 32.7137 38.7484 32.1177 39.2387C31.5218 39.7247 30.7082 39.9678 29.6769 39.9678H26.1836ZM28.2314 32.3853V34.5409H29.1317C29.5543 34.5409 29.8861 34.4394 30.127 34.2365C30.3722 34.0294 30.4947 33.7463 30.4947 33.387C30.4947 32.7192 29.996 32.3853 28.9985 32.3853H28.2314ZM28.2314 36.0624V38.4589H29.3409C29.8142 38.4589 30.1841 38.349 30.4503 38.1292C30.7208 37.9094 30.8561 37.6093 30.8561 37.229C30.8561 36.8655 30.723 36.5802 30.4567 36.3731C30.1946 36.166 29.8269 36.0624 29.3536 36.0624H28.2314ZM36.562 39.9678H34.5142V30.8764H36.562V39.9678ZM44.0493 39.9678H38.6351V30.8764H40.6829V38.3067H44.0493V39.9678ZM53.5655 39.9678H51.3338L50.6872 37.9454H47.4539L46.8135 39.9678H44.5946L47.904 30.8764H50.3321L53.5655 39.9678ZM50.218 36.3731L49.2417 33.3173C49.1698 33.089 49.1191 32.8164 49.0895 32.4994H49.0388C49.0177 32.7657 48.9649 33.0299 48.8803 33.2919L47.8913 36.3731H50.218ZM62.3272 39.9678H59.9751L58.5613 37.6284C58.4556 37.4508 58.3542 37.2924 58.257 37.1529C58.1598 37.0134 58.0604 36.8951 57.959 36.7978C57.8618 36.6964 57.7582 36.6203 57.6483 36.5696C57.5427 36.5147 57.4265 36.4872 57.2997 36.4872H56.7481V39.9678H54.7003V30.8764H57.9463C60.1526 30.8764 61.2557 31.7006 61.2557 33.349C61.2557 33.666 61.2071 33.9597 61.1099 34.2302C61.0127 34.4965 60.8753 34.7374 60.6978 34.9529C60.5203 35.1685 60.3047 35.3545 60.0512 35.5109C59.8018 35.6672 59.5228 35.7898 59.2143 35.8786V35.9039C59.3495 35.9462 59.4806 36.0159 59.6074 36.1131C59.7342 36.2061 59.8567 36.316 59.9751 36.4428C60.0934 36.5696 60.2054 36.707 60.3111 36.8549C60.421 36.9986 60.5203 37.1402 60.6091 37.2797L62.3272 39.9678ZM56.7481 32.4107V34.9403H57.6357C58.0752 34.9403 58.4282 34.8135 58.6944 34.5599C58.9649 34.3021 59.1002 33.9829 59.1002 33.6026C59.1002 32.808 58.6247 32.4107 57.6737 32.4107H56.7481Z" fill="#121127"/>
<path fill-rule="evenodd" clip-rule="evenodd" d="M30.0707 3.18109C29.5544 4.93082 28.6541 7.93039 28.0696 9.84683C27.485 11.7635 27.007 13.5896 27.007 13.9051C27.007 14.505 27.6505 15.2381 27.8621 14.8794C27.9296 14.7652 28.5923 12.627 29.335 10.1275C30.0777 7.62812 30.7773 5.29099 30.8897 4.93393L31.0938 4.28473L31.368 4.93393C31.6044 5.49251 33.0155 10.1153 34.0466 13.7088C34.2702 14.4876 34.4899 14.7992 34.7766 14.7447C35.4188 14.6226 35.3983 13.7363 34.6987 11.3891C34.3432 10.1953 33.4361 7.14433 32.6836 4.60933C31.9308 2.07433 31.246 0 31.1619 0C31.078 0 30.5867 1.43136 30.0707 3.18109ZM25.0931 19.7168C24.7176 20.9684 24.4102 22.0692 24.4102 22.1627C24.4102 22.2562 24.6989 22.3325 25.0518 22.3325C25.6203 22.3325 25.7563 22.1263 26.2419 20.5272C26.7945 18.7079 26.7584 17.8177 26.122 17.5736C25.8774 17.4796 25.5766 18.1062 25.0931 19.7168ZM35.7834 18.06C35.5359 18.603 35.586 19.0442 36.0636 20.527C36.5733 22.1097 36.7234 22.3325 37.2794 22.3325C37.6282 22.3325 37.9136 22.2679 37.9136 22.1889C37.9136 21.6639 36.4801 17.3986 36.3035 17.3986C36.1833 17.3986 35.9491 17.6962 35.7834 18.06Z" fill="#E70009"/>
<path fill-rule="evenodd" clip-rule="evenodd" d="M18.3017 6.9361C18.4419 7.43599 18.6673 8.13713 18.8029 8.49419C18.9387 8.85125 20.0096 12.1232 21.1831 15.7652L23.3166 22.3871L23.675 21.319C24.025 20.2749 23.9978 20.1505 22.4506 15.7723C21.5801 13.3089 20.9037 11.2619 20.9476 11.2229C20.9914 11.1842 22.0125 12.2193 23.2169 13.5237C29.549 20.3816 31.0437 21.8314 31.3917 21.4541C34.9807 17.5633 41.1525 11.0889 41.1525 11.2149C41.1525 11.2704 40.4493 13.3336 39.59 15.7995C38.0712 20.1572 38.0374 20.3123 38.3815 21.3349L38.7354 22.3871L40.9934 15.3757C42.2354 11.5195 43.4206 7.90549 43.6273 7.34458C43.8343 6.78341 43.9623 6.28326 43.9119 6.23289C43.8389 6.15992 35.7029 14.7031 31.8838 18.863L31.0663 19.7537L28.256 16.7855C26.7101 15.1532 24.4462 12.7659 23.225 11.4805C22.0034 10.1951 20.3389 8.44225 19.5258 7.58531C18.0604 6.04124 18.0495 6.03553 18.3017 6.9361Z" fill="#121127"/>
</svg>
